<svg width="151" height="99" viewBox="0 0 151 99" fill="none" xmlns="http://www.w3.org/2000/svg">
<path d="M2.75711 5.90421C1.38411 3.41566 0.268555 1.18454 0.268555 0.927107C0.354367 0.669671 3.10035 0.498047 12.5397 0.927107L30.646 38.5986C40.6002 59.3651 49.0956 76.4417 49.6105 76.6134C50.1254 76.785 53.8153 69.2335 65.3999 42.975L54.6734 22.6376C48.8382 11.3962 44.0327 1.87104 44.0327 1.35617C44.0327 0.841295 46.4355 0.583859 55.9606 0.927107L71.0635 31.8195C79.3873 48.8102 88.1401 66.9166 90.5429 72.1511C92.9456 77.3857 95.3484 82.1053 95.8632 82.706C96.5497 83.5641 101.098 75.5836 115.514 47.6947C125.812 27.8721 134.05 11.2246 133.792 10.7955C133.449 10.2806 127.013 9.93738 103.672 9.93738L101.355 5.64677C99.9822 3.24403 98.9525 1.18454 98.9525 0.927107C98.9525 0.669671 110.537 0.498047 124.696 0.498047C138.855 0.498047 150.354 0.841295 150.268 1.18454C150.096 1.52779 142.631 16.2875 133.621 33.9648C124.61 51.6421 113.455 73.3525 100.669 98.3238L90.8861 97.8948L81.361 77.5573C76.2122 66.3159 71.5784 57.134 71.0635 57.134C70.5487 57.134 65.7432 66.1443 60.337 77.2999C54.9309 88.3696 49.8679 97.6373 49.1814 97.8948C48.4949 98.1522 47.4652 97.8948 46.9503 97.2941C46.4355 96.6934 36.8245 76.8708 25.5831 53.2725C14.4275 29.6742 4.1301 8.30695 2.75711 5.90421Z" fill="white"/>
</svg>
