<svg width="176" height="115" viewBox="0 0 176 115" fill="none" xmlns="http://www.w3.org/2000/svg">
<path d="M3.57017 6.80903C1.97017 3.90903 0.670166 1.30903 0.670166 1.00903C0.770166 0.709033 3.97017 0.509033 14.9702 1.00903L36.0702 44.909C47.6702 69.109 57.5702 89.009 58.1702 89.209C58.7702 89.409 63.0702 80.609 76.5702 50.009L64.0702 26.309C57.2702 13.209 51.6702 2.10903 51.6702 1.50903C51.6702 0.909033 54.4702 0.609033 65.5702 1.00903L83.1702 37.009C92.8702 56.809 103.07 77.909 105.87 84.009C108.67 90.109 111.47 95.609 112.07 96.309C112.87 97.309 118.17 88.009 134.97 55.509C146.97 32.409 156.57 13.009 156.27 12.509C155.87 11.909 148.37 11.509 121.17 11.509L118.47 6.50903C116.87 3.70903 115.67 1.30903 115.67 1.00903C115.67 0.709033 129.17 0.509033 145.67 0.509033C162.17 0.509033 175.57 0.909033 175.47 1.30903C175.27 1.70903 166.57 18.909 156.07 39.509C145.57 60.109 132.57 85.409 117.67 114.509L106.27 114.009L95.1702 90.309C89.1702 77.209 83.7702 66.509 83.1702 66.509C82.5702 66.509 76.9702 77.009 70.6702 90.009C64.3702 102.909 58.4702 113.709 57.6702 114.009C56.8702 114.309 55.6702 114.009 55.0702 113.309C54.4702 112.609 43.2702 89.509 30.1702 62.009C17.1702 34.509 5.17017 9.60903 3.57017 6.80903Z" fill="white"/>
</svg>
