<svg width="219" height="32" viewBox="0 0 219 32" fill="none" xmlns="http://www.w3.org/2000/svg">
<path d="M59.1259 12.2935H63.8174V24.9906C63.8174 26.5037 63.5011 27.7854 62.8684 28.8357C62.2357 29.8771 61.3491 30.6649 60.2086 31.1989C59.068 31.733 57.727 32 56.1854 32C54.6617 32 53.3207 31.733 52.1623 31.1989C51.0128 30.6649 50.1128 29.8771 49.4623 28.8357C48.8208 27.7854 48.5 26.5037 48.5 24.9906V12.2935H53.2048V24.9906C53.2048 25.7916 53.3207 26.4459 53.5523 26.9532C53.784 27.4517 54.1226 27.8166 54.5681 28.048C55.0137 28.2794 55.5528 28.3951 56.1854 28.3951C56.827 28.3951 57.3661 28.2794 57.8027 28.048C58.2393 27.8166 58.569 27.4517 58.7918 26.9532C59.0145 26.4459 59.1259 25.7916 59.1259 24.9906V12.2935Z" fill="#D72638"/>
<path d="M74.5369 25.1374H69.6984V21.5192H74.5369C75.1963 21.5192 75.7309 21.408 76.1408 21.1854C76.5507 20.9629 76.8492 20.6558 77.0363 20.2642C77.2323 19.8637 77.3304 19.4142 77.3304 18.9157C77.3304 18.3817 77.2323 17.8877 77.0363 17.4337C76.8492 16.9798 76.5507 16.6148 76.1408 16.3389C75.7309 16.0541 75.1963 15.9117 74.5369 15.9117H71.4627V31.733H66.7713V12.2935H74.5369C76.0962 12.2935 77.4373 12.5783 78.56 13.148C79.6917 13.7176 80.5605 14.5009 81.1664 15.4978C81.7723 16.4858 82.0753 17.6162 82.0753 18.889C82.0753 20.144 81.7723 21.2388 81.1664 22.1734C80.5605 23.108 79.6917 23.8379 78.56 24.3631C77.4373 24.8793 76.0962 25.1374 74.5369 25.1374Z" fill="#D72638"/>
<path d="M103.287 26.9532C103.287 26.4192 103.198 25.943 103.02 25.5246C102.841 25.1063 102.547 24.7324 102.138 24.4031C101.737 24.0649 101.193 23.7533 100.507 23.4685C99.8297 23.1748 98.9832 22.8855 97.9674 22.6007C96.9961 22.3248 96.1184 22.0221 95.3343 21.6928C94.5502 21.3635 93.8774 20.9852 93.316 20.5579C92.7636 20.1307 92.3403 19.6322 92.0463 19.0626C91.7522 18.484 91.6052 17.812 91.6052 17.0465C91.6052 16.2989 91.7656 15.6179 92.0864 15.0038C92.4071 14.3896 92.8571 13.86 93.4363 13.415C94.0244 12.9699 94.715 12.6273 95.508 12.3869C96.31 12.1466 97.1877 12.0264 98.1411 12.0264C99.5045 12.0264 100.681 12.2846 101.67 12.8008C102.668 13.3171 103.439 14.0158 103.982 14.897C104.535 15.7693 104.811 16.7484 104.811 17.8343H103.167C103.167 16.9887 102.966 16.2366 102.565 15.5779C102.173 14.9103 101.603 14.3896 100.854 14.0158C100.115 13.6331 99.2104 13.4417 98.1411 13.4417C97.0719 13.4417 96.1719 13.6064 95.4412 13.9357C94.7195 14.2561 94.1715 14.6878 93.7972 15.2308C93.4319 15.7648 93.2492 16.3612 93.2492 17.0198C93.2492 17.4827 93.3383 17.9099 93.5165 18.3016C93.6947 18.6843 93.9843 19.0448 94.3853 19.383C94.7952 19.7123 95.3343 20.0239 96.0026 20.3176C96.6709 20.6024 97.4951 20.8739 98.4753 21.132C99.5089 21.4169 100.427 21.7328 101.229 22.08C102.031 22.4271 102.708 22.8277 103.26 23.2816C103.813 23.7266 104.232 24.2473 104.517 24.8437C104.802 25.4401 104.944 26.1343 104.944 26.9265C104.944 27.7187 104.775 28.4308 104.437 29.0627C104.107 29.6858 103.639 30.2154 103.033 30.6515C102.436 31.0877 101.728 31.4214 100.908 31.6529C100.097 31.8843 99.2104 32 98.2481 32C97.3837 32 96.5239 31.8887 95.6684 31.6662C94.813 31.4437 94.0289 31.101 93.316 30.6382C92.6121 30.1664 92.0463 29.5612 91.6186 28.8224C91.1998 28.0836 90.9904 27.2024 90.9904 26.1788H92.621C92.621 26.9977 92.7858 27.6875 93.1155 28.2483C93.4452 28.809 93.8819 29.263 94.4254 29.6101C94.9779 29.9573 95.5838 30.2109 96.2432 30.3711C96.9115 30.5225 97.5798 30.5981 98.2481 30.5981C99.2728 30.5981 100.159 30.4468 100.908 30.1442C101.665 29.8415 102.249 29.4187 102.659 28.8758C103.078 28.3239 103.287 27.6831 103.287 26.9532Z" fill="#F0F1F3"/>
<path d="M120.623 25.6715H122.267C122.133 26.9799 121.772 28.1103 121.184 29.0627C120.596 30.0062 119.794 30.7316 118.778 31.239C117.762 31.7463 116.537 32 115.103 32C113.998 32 112.995 31.7908 112.095 31.3725C111.204 30.9541 110.438 30.3622 109.796 29.5968C109.155 28.8224 108.66 27.8967 108.313 26.8197C107.965 25.7427 107.791 24.5455 107.791 23.2282V20.7983C107.791 19.4809 107.965 18.2882 108.313 17.2201C108.66 16.1431 109.159 15.2174 109.81 14.443C110.46 13.6687 111.24 13.0723 112.149 12.654C113.058 12.2356 114.082 12.0264 115.223 12.0264C116.604 12.0264 117.798 12.2801 118.805 12.7875C119.812 13.2859 120.605 14.0069 121.184 14.9504C121.772 15.8939 122.133 17.0332 122.267 18.3683H120.623C120.498 17.318 120.222 16.4279 119.794 15.6981C119.366 14.9682 118.774 14.4119 118.016 14.0291C117.268 13.6375 116.337 13.4417 115.223 13.4417C114.314 13.4417 113.503 13.6153 112.79 13.9624C112.077 14.3095 111.471 14.808 110.972 15.4577C110.473 16.0986 110.09 16.8685 109.823 17.7675C109.565 18.6665 109.435 19.6678 109.435 20.7716V23.2282C109.435 24.2963 109.56 25.2798 109.81 26.1788C110.059 27.0778 110.424 27.8566 110.906 28.5153C111.396 29.174 111.993 29.6858 112.697 30.0507C113.401 30.4156 114.203 30.5981 115.103 30.5981C116.252 30.5981 117.21 30.4156 117.976 30.0507C118.751 29.6769 119.353 29.125 119.781 28.3951C120.208 27.6653 120.489 26.7574 120.623 25.6715Z" fill="#F0F1F3"/>
<path d="M132.665 13.455L125.929 31.733H124.218L131.569 12.2935H132.759L132.665 13.455ZM138.787 31.733L132.037 13.455L131.944 12.2935H133.133L140.498 31.733H138.787ZM137.584 24.8704V26.2856H127.252V24.8704H137.584Z" fill="#F0F1F3"/>
<path d="M154.639 30.3311V31.733H144.548V30.3311H154.639ZM145.029 12.2935V31.733H143.385V12.2935H145.029Z" fill="#F0F1F3"/>
<path d="M169.916 30.3311V31.733H158.97V30.3311H169.916ZM159.464 12.2935V31.733H157.82V12.2935H159.464ZM168.553 21.0119V22.4138H158.97V21.0119H168.553ZM169.849 12.2935V13.7087H158.97V12.2935H169.849Z" fill="#F0F1F3"/>
<path d="M131.162 0.215675V7.19396H130.572V0.215675H131.162Z" fill="#F0F1F3"/>
<path d="M134.452 3.08176V7.19396H133.877V2.00817H134.428L134.452 3.08176ZM134.347 4.27995L134.069 4.13617C134.088 3.82943 134.145 3.54186 134.241 3.27347C134.34 3.00507 134.478 2.76863 134.654 2.56414C134.83 2.35964 135.041 2.19988 135.287 2.08486C135.534 1.96983 135.813 1.91232 136.127 1.91232C136.38 1.91232 136.608 1.94746 136.813 2.01776C137.021 2.08486 137.197 2.1919 137.341 2.33888C137.488 2.48266 137.601 2.67117 137.681 2.90442C137.761 3.13767 137.801 3.41725 137.801 3.74316V7.19396H137.23V3.76233C137.23 3.41725 137.176 3.14726 137.067 2.95235C136.962 2.75744 136.813 2.61845 136.621 2.53538C136.432 2.4523 136.213 2.41077 135.964 2.41077C135.669 2.41077 135.42 2.47148 135.215 2.59289C135.014 2.71111 134.849 2.86608 134.721 3.05779C134.596 3.24631 134.504 3.4492 134.443 3.66647C134.382 3.88055 134.35 4.08504 134.347 4.27995ZM137.797 3.82943L137.413 3.83901C137.429 3.58659 137.486 3.34536 137.585 3.1153C137.688 2.88525 137.827 2.68076 138.003 2.50183C138.179 2.3197 138.388 2.17592 138.631 2.07048C138.878 1.96504 139.154 1.91232 139.462 1.91232C139.73 1.91232 139.97 1.94906 140.181 2.02255C140.392 2.09285 140.57 2.20627 140.714 2.36284C140.861 2.51621 140.973 2.71271 141.05 2.95235C141.126 3.19199 141.165 3.47956 141.165 3.81505V7.19396H140.589V3.81026C140.589 3.44281 140.535 3.15844 140.426 2.95714C140.32 2.75265 140.173 2.61047 139.985 2.53059C139.796 2.45071 139.575 2.41077 139.322 2.41077C139.073 2.41396 138.854 2.46029 138.665 2.54976C138.476 2.63603 138.318 2.75105 138.19 2.89484C138.065 3.03543 137.969 3.1872 137.902 3.35015C137.838 3.51311 137.803 3.67286 137.797 3.82943Z" fill="#F0F1F3"/>
<path d="M145.612 7.28981C145.273 7.28981 144.961 7.22751 144.676 7.1029C144.395 6.97828 144.148 6.80255 143.937 6.57569C143.729 6.34883 143.568 6.08044 143.453 5.7705C143.341 5.45738 143.285 5.11549 143.285 4.74485V4.53876C143.285 4.13936 143.344 3.77831 143.462 3.45559C143.58 3.13288 143.744 2.85649 143.952 2.62644C144.159 2.39639 144.396 2.22065 144.662 2.09924C144.93 1.97462 145.212 1.91232 145.506 1.91232C145.836 1.91232 146.128 1.97143 146.384 2.08965C146.64 2.20468 146.854 2.36923 147.027 2.58331C147.203 2.79419 147.336 3.04501 147.425 3.33577C147.515 3.62334 147.56 3.94126 147.56 4.28954V4.63941H143.63V4.15054H146.989V4.08345C146.982 3.79268 146.923 3.52109 146.811 3.26867C146.702 3.01306 146.539 2.80537 146.322 2.64561C146.104 2.48585 145.832 2.40597 145.506 2.40597C145.263 2.40597 145.039 2.4571 144.834 2.55934C144.633 2.66159 144.459 2.80857 144.311 3.00028C144.167 3.18879 144.055 3.41405 143.976 3.67606C143.899 3.93487 143.86 4.22244 143.86 4.53876V4.74485C143.86 5.03242 143.902 5.30081 143.985 5.55004C144.071 5.79606 144.193 6.01334 144.35 6.20185C144.51 6.39037 144.698 6.53735 144.916 6.64279C145.133 6.74823 145.373 6.80095 145.636 6.80095C145.943 6.80095 146.215 6.74503 146.451 6.6332C146.688 6.51818 146.901 6.33765 147.089 6.09162L147.449 6.3696C147.337 6.53575 147.197 6.68912 147.027 6.82971C146.861 6.9703 146.661 7.08213 146.427 7.1652C146.194 7.24828 145.922 7.28981 145.612 7.28981Z" fill="#F0F1F3"/>
<path d="M150.246 2.86608V7.19396H149.675V2.00817H150.231L150.246 2.86608ZM152.083 1.96983L152.069 2.49704C152.005 2.48745 151.942 2.47946 151.882 2.47307C151.821 2.46668 151.755 2.46349 151.685 2.46349C151.435 2.46349 151.216 2.50982 151.028 2.60248C150.842 2.69194 150.685 2.81815 150.557 2.98111C150.43 3.14087 150.332 3.32938 150.265 3.54665C150.198 3.76073 150.159 3.99079 150.15 4.23681L149.939 4.31829C149.939 3.9796 149.974 3.66488 150.044 3.37411C150.114 3.08335 150.222 2.82934 150.366 2.61206C150.513 2.3916 150.697 2.22065 150.917 2.09924C151.141 1.97462 151.404 1.91232 151.704 1.91232C151.778 1.91232 151.85 1.91871 151.92 1.93149C151.994 1.94107 152.048 1.95386 152.083 1.96983Z" fill="#F0F1F3"/>
<path d="M157.077 5.87115C157.077 5.73056 157.042 5.59157 156.971 5.45418C156.901 5.31679 156.765 5.19058 156.564 5.07555C156.365 4.96052 156.073 4.86307 155.686 4.78319C155.398 4.71929 155.14 4.6474 154.913 4.56752C154.689 4.48764 154.5 4.39178 154.347 4.27995C154.193 4.16812 154.077 4.03392 153.997 3.87736C153.917 3.72079 153.877 3.53547 153.877 3.32139C153.877 3.12968 153.918 2.94916 154.001 2.77981C154.088 2.60727 154.209 2.4571 154.366 2.32929C154.526 2.19829 154.718 2.09604 154.942 2.02255C155.169 1.94906 155.423 1.91232 155.705 1.91232C156.105 1.91232 156.447 1.98101 156.732 2.11841C157.019 2.25261 157.239 2.43633 157.389 2.66958C157.542 2.90283 157.619 3.16643 157.619 3.46038H157.048C157.048 3.28145 156.995 3.11211 156.89 2.95235C156.788 2.79259 156.636 2.66159 156.434 2.55934C156.236 2.4571 155.993 2.40597 155.705 2.40597C155.407 2.40597 155.166 2.45071 154.98 2.54017C154.795 2.62964 154.659 2.74307 154.572 2.88046C154.489 3.01785 154.448 3.16004 154.448 3.30702C154.448 3.42204 154.465 3.52748 154.5 3.62334C154.539 3.716 154.606 3.80227 154.702 3.88215C154.801 3.96203 154.942 4.03712 155.124 4.10741C155.307 4.1777 155.543 4.2464 155.834 4.3135C156.253 4.40616 156.596 4.51959 156.861 4.65379C157.13 4.78479 157.328 4.94774 157.456 5.14265C157.584 5.33436 157.648 5.56761 157.648 5.84239C157.648 6.05647 157.603 6.25298 157.514 6.43191C157.424 6.60764 157.295 6.75941 157.125 6.88722C156.959 7.01503 156.757 7.11408 156.52 7.18437C156.287 7.25467 156.025 7.28981 155.734 7.28981C155.295 7.28981 154.924 7.21792 154.62 7.07414C154.32 6.92716 154.091 6.73545 153.934 6.49901C153.781 6.25937 153.704 6.00535 153.704 5.73695H154.275C154.294 6.00535 154.379 6.21783 154.529 6.37439C154.68 6.52776 154.864 6.6364 155.081 6.7003C155.302 6.76421 155.519 6.79616 155.734 6.79616C156.028 6.79616 156.274 6.75302 156.472 6.66675C156.671 6.58048 156.821 6.46705 156.923 6.32647C157.026 6.18588 157.077 6.03411 157.077 5.87115Z" fill="#F0F1F3"/>
<path d="M163.088 6.26416V3.58979C163.088 3.34376 163.037 3.13128 162.934 2.95235C162.832 2.77342 162.682 2.63603 162.483 2.54017C162.285 2.44432 162.04 2.39639 161.749 2.39639C161.481 2.39639 161.241 2.44432 161.03 2.54017C160.822 2.63283 160.657 2.75904 160.535 2.9188C160.417 3.07537 160.358 3.2495 160.358 3.44121L159.782 3.43642C159.782 3.24151 159.83 3.053 159.926 2.87087C160.022 2.68875 160.158 2.52579 160.334 2.38201C160.51 2.23823 160.719 2.1248 160.962 2.04172C161.209 1.95545 161.479 1.91232 161.773 1.91232C162.144 1.91232 162.471 1.97462 162.752 2.09924C163.037 2.22385 163.259 2.41077 163.419 2.65999C163.579 2.90922 163.659 3.22234 163.659 3.59938V6.106C163.659 6.28493 163.672 6.47025 163.697 6.66196C163.726 6.85367 163.766 7.01183 163.817 7.13644V7.19396H163.208C163.17 7.07893 163.139 6.93515 163.117 6.76261C163.098 6.58687 163.088 6.42072 163.088 6.26416ZM163.222 4.17451L163.232 4.61544H162.104C161.81 4.61544 161.546 4.6426 161.313 4.69692C161.082 4.74804 160.887 4.82473 160.727 4.92697C160.567 5.02603 160.444 5.14584 160.358 5.28643C160.275 5.42702 160.233 5.58678 160.233 5.76571C160.233 5.95103 160.28 6.12038 160.372 6.27374C160.468 6.42711 160.603 6.55013 160.775 6.64279C160.951 6.73225 161.159 6.77699 161.399 6.77699C161.719 6.77699 162 6.71788 162.244 6.59965C162.49 6.48143 162.693 6.32647 162.853 6.13475C163.013 5.94304 163.12 5.73376 163.174 5.5069L163.424 5.8376C163.382 5.99736 163.306 6.16191 163.194 6.33126C163.085 6.49741 162.942 6.65397 162.767 6.80095C162.591 6.94473 162.383 7.06296 162.143 7.15562C161.906 7.24508 161.637 7.28981 161.337 7.28981C160.998 7.28981 160.702 7.22591 160.449 7.0981C160.2 6.9703 160.004 6.79616 159.864 6.57569C159.726 6.35203 159.657 6.09961 159.657 5.81843C159.657 5.56282 159.712 5.33436 159.821 5.13306C159.929 4.92857 160.086 4.75603 160.291 4.61544C160.499 4.47166 160.748 4.36302 161.039 4.28954C161.334 4.21285 161.663 4.17451 162.028 4.17451H163.222ZM163.165 0L163.597 0.0287567C163.597 0.233248 163.553 0.412179 163.467 0.565548C163.384 0.718917 163.272 0.838736 163.131 0.925006C162.99 1.01128 162.832 1.05441 162.656 1.05441C162.487 1.05441 162.348 1.02725 162.239 0.972934C162.13 0.918616 162.032 0.857907 161.946 0.790808C161.86 0.720514 161.769 0.659806 161.673 0.608683C161.577 0.554365 161.46 0.527205 161.322 0.527205C161.175 0.527205 161.05 0.578328 160.948 0.680574C160.846 0.779625 160.795 0.917018 160.795 1.09275L160.363 1.07837C160.363 0.873883 160.404 0.69655 160.487 0.546377C160.571 0.393008 160.683 0.273188 160.823 0.186918C160.967 0.100648 161.127 0.0575133 161.303 0.0575133C161.453 0.0575133 161.583 0.0846724 161.692 0.138991C161.804 0.190113 161.906 0.250822 161.999 0.321116C162.092 0.39141 162.188 0.453716 162.287 0.508034C162.386 0.559157 162.501 0.584719 162.632 0.584719C162.779 0.584719 162.904 0.531998 163.006 0.426557C163.112 0.317921 163.165 0.175735 163.165 0Z" fill="#F0F1F3"/>
<path d="M165.865 4.68254V4.52438C165.865 4.14735 165.919 3.79907 166.028 3.47956C166.137 3.16004 166.292 2.88365 166.494 2.65041C166.698 2.41716 166.943 2.23663 167.228 2.10882C167.512 1.97782 167.829 1.91232 168.178 1.91232C168.53 1.91232 168.848 1.97782 169.133 2.10882C169.417 2.23663 169.662 2.41716 169.867 2.65041C170.071 2.88365 170.228 3.16004 170.337 3.47956C170.446 3.79907 170.5 4.14735 170.5 4.52438V4.68254C170.5 5.05957 170.446 5.40785 170.337 5.72737C170.228 6.04369 170.071 6.31848 169.867 6.55173C169.665 6.78497 169.422 6.9671 169.137 7.0981C168.853 7.22591 168.536 7.28981 168.187 7.28981C167.835 7.28981 167.517 7.22591 167.233 7.0981C166.948 6.9671 166.703 6.78497 166.498 6.55173C166.294 6.31848 166.137 6.04369 166.028 5.72737C165.919 5.40785 165.865 5.05957 165.865 4.68254ZM166.436 4.52438V4.68254C166.436 4.96691 166.474 5.23691 166.551 5.49252C166.628 5.74494 166.74 5.9702 166.887 6.1683C167.034 6.36321 167.217 6.51658 167.434 6.62841C167.652 6.74024 167.903 6.79616 168.187 6.79616C168.469 6.79616 168.717 6.74024 168.931 6.62841C169.149 6.51658 169.331 6.36321 169.478 6.1683C169.625 5.9702 169.736 5.74494 169.809 5.49252C169.886 5.23691 169.924 4.96691 169.924 4.68254V4.52438C169.924 4.24321 169.886 3.97641 169.809 3.72399C169.736 3.47157 169.624 3.24631 169.473 3.04821C169.326 2.8501 169.144 2.69354 168.926 2.57851C168.709 2.46349 168.459 2.40597 168.178 2.40597C167.896 2.40597 167.647 2.46349 167.429 2.57851C167.215 2.69354 167.033 2.8501 166.882 3.04821C166.735 3.24631 166.623 3.47157 166.546 3.72399C166.473 3.97641 166.436 4.24321 166.436 4.52438Z" fill="#F0F1F3"/>
</svg>
