<svg width="65" height="64" viewBox="0 0 65 64" fill="none" xmlns="http://www.w3.org/2000/svg">
<rect x="1.5" y="1" width="62" height="62" rx="15" stroke="#D72638" stroke-width="2"/>
<path d="M19.667 41.3332V19.9998C19.667 19.2635 20.2639 18.6665 21.0003 18.6665C21.7367 18.6665 22.3337 19.2635 22.3337 19.9998V41.3332C22.3337 41.6868 22.4742 42.0258 22.7243 42.2759C22.9743 42.5259 23.3134 42.6665 23.667 42.6665H45.0003C45.7367 42.6665 46.3337 43.2635 46.3337 43.9998C46.3337 44.7362 45.7367 45.3332 45.0003 45.3332H23.667C22.6061 45.3332 21.589 44.9114 20.8389 44.1613C20.0887 43.4111 19.667 42.394 19.667 41.3332ZM41.0003 28.5532L36.4157 33.1379L36.4144 33.1366C36.2289 33.3222 36.0096 33.4708 35.7673 33.5715C35.5243 33.6723 35.2634 33.7238 35.0003 33.7238C34.7373 33.7238 34.4764 33.6723 34.2334 33.5715C33.9907 33.4707 33.7706 33.3225 33.585 33.1366L29.667 29.2199L27.667 31.2199V37.3332H41.0003V28.5532ZM43.667 37.3332C43.667 38.0404 43.3858 38.7185 42.8857 39.2186C42.3856 39.7187 41.7076 39.9998 41.0003 39.9998H27.667C26.9598 39.9998 26.2817 39.7187 25.7816 39.2186C25.2815 38.7185 25.0003 38.0404 25.0003 37.3332V30.9425C25.0004 30.4131 25.2111 29.9046 25.585 29.5298V29.5285L28.2516 26.8618C28.4371 26.6762 28.6577 26.5288 28.9001 26.4282C29.143 26.3274 29.4039 26.2759 29.667 26.2759C29.8641 26.2759 30.0598 26.3048 30.2477 26.3618L30.4339 26.4282L30.611 26.5129C30.7837 26.6053 30.9421 26.7228 31.0811 26.8618L35.0003 30.7798L40.2516 25.5285C40.5309 25.2489 40.8876 25.0591 41.2751 24.9816L41.4209 24.9582C41.714 24.9218 42.0115 24.9505 42.292 25.0428L42.4313 25.0949L42.5654 25.1561C42.8293 25.2888 43.0606 25.4781 43.2425 25.7108L43.3298 25.8306L43.4066 25.9569C43.5765 26.2567 43.6669 26.5962 43.667 26.9425V37.3332Z" fill="#D72638"/>
</svg>
