<svg width="64" height="64" viewBox="0 0 64 64" fill="none" xmlns="http://www.w3.org/2000/svg">
<rect x="1" y="1" width="62" height="62" rx="15" stroke="#D72638" stroke-width="2"/>
<path d="M30.6667 45.3332V42.6665H26.6667V42.6652C25.238 42.6677 23.8462 42.2127 22.6966 41.3644C21.546 40.5153 20.6984 39.3178 20.2799 37.9504C19.8616 36.583 19.8941 35.1169 20.3724 33.7694C20.7047 32.8333 21.2399 31.9886 21.9336 31.2928C21.6025 30.6158 21.3998 29.8789 21.3411 29.1196C21.2483 27.9188 21.5195 26.7178 22.1185 25.673C22.7177 24.628 23.6184 23.7867 24.7018 23.2603C25.3736 22.9339 26.0967 22.7373 26.8333 22.6769C27.0686 21.7582 27.5472 20.911 28.2292 20.229C29.2293 19.2289 30.5856 18.6666 32 18.6665C33.4144 18.6665 34.7706 19.2289 35.7708 20.229C36.456 20.9142 36.9365 21.7662 37.1706 22.6899C37.9062 22.7507 38.6286 22.9486 39.2995 23.2746C40.3827 23.8011 41.2824 24.6413 41.8815 25.686C42.4806 26.7309 42.7516 27.9318 42.6588 29.1327C42.6 29.894 42.3952 30.6324 42.0625 31.311C42.752 32.0076 43.2841 32.8506 43.6133 33.785C44.0868 35.1293 44.118 36.5902 43.7005 37.953C43.2829 39.3158 42.4384 40.5083 41.293 41.3566C40.1476 42.2048 38.7611 42.6643 37.3359 42.6665H33.3333V45.3332C33.3333 46.0696 32.7364 46.6665 32 46.6665C31.2637 46.6664 30.6667 46.0695 30.6667 45.3332ZM32 21.3332C31.2928 21.3332 30.6146 21.6144 30.1146 22.1144C29.6145 22.6145 29.3333 23.2926 29.3333 23.9998V24.0402C29.3332 24.4274 29.1654 24.7961 28.8724 25.0493C28.5794 25.3024 28.1904 25.4152 27.8073 25.3592C27.1453 25.2622 26.469 25.3664 25.8672 25.6587C25.2654 25.9511 24.7652 26.4182 24.4323 26.9985C24.0994 27.579 23.9485 28.2467 24 28.9139C24.0515 29.581 24.3033 30.217 24.7213 30.7394C24.9542 31.0304 25.055 31.4062 24.9987 31.7746C24.9422 32.143 24.7337 32.4715 24.4245 32.6795C23.7125 33.158 23.1725 33.8529 22.8854 34.6613C22.5984 35.4698 22.5784 36.35 22.8294 37.1704C23.0805 37.9909 23.5896 38.7091 24.2799 39.2186C24.9702 39.7279 25.8062 40.0018 26.6641 39.9998H37.332C38.1868 39.9985 39.0187 39.7233 39.7057 39.2147C40.393 38.7057 40.8992 37.9894 41.1497 37.1717C41.4003 36.354 41.3831 35.477 41.0989 34.6704C40.8148 33.864 40.2792 33.17 39.5716 32.6899C39.2639 32.4812 39.0568 32.1527 39.0013 31.785C38.946 31.4177 39.0467 31.0438 39.2786 30.7537C39.6968 30.2313 39.9484 29.5941 40 28.9269C40.0514 28.2601 39.9016 27.5931 39.569 27.0129C39.2362 26.4325 38.7357 25.9655 38.1341 25.673C37.5323 25.3806 36.856 25.2753 36.194 25.3722C35.8109 25.4284 35.4219 25.3153 35.1289 25.0623C34.8358 24.8091 34.6667 24.4406 34.6667 24.0532V23.9998C34.6667 23.2926 34.3855 22.6145 33.8854 22.1144C33.3853 21.6144 32.7072 21.3332 32 21.3332Z" fill="#D72638"/>
</svg>
