<svg width="65" height="64" viewBox="0 0 65 64" fill="none" xmlns="http://www.w3.org/2000/svg">
<rect x="1.5" y="1" width="62" height="62" rx="15" stroke="#D72638" stroke-width="2"/>
<path d="M46.0909 30.5455C46.0909 30.1597 45.9376 29.7898 45.6648 29.517C45.392 29.2443 45.0221 29.0909 44.6364 29.0909H43.1818V45.0909H44.6364C45.0221 45.0909 45.392 44.9376 45.6648 44.6648C45.9376 44.392 46.0909 44.0221 46.0909 43.6364V30.5455ZM35.9091 39.2727C36.7124 39.2727 37.3636 39.924 37.3636 40.7273C37.3636 41.5306 36.7124 42.1818 35.9091 42.1818H30.0909C29.2876 42.1818 28.6364 41.5306 28.6364 40.7273C28.6364 39.924 29.2876 39.2727 30.0909 39.2727H35.9091ZM35.9091 33.4545C36.7124 33.4545 37.3636 34.1058 37.3636 34.9091C37.3636 35.7124 36.7124 36.3636 35.9091 36.3636H30.0909C29.2876 36.3636 28.6364 35.7124 28.6364 34.9091C28.6364 34.1058 29.2876 33.4545 30.0909 33.4545H35.9091ZM35.9091 27.6364C36.7124 27.6364 37.3636 28.2876 37.3636 29.0909C37.3636 29.8942 36.7124 30.5455 35.9091 30.5455H30.0909C29.2876 30.5455 28.6364 29.8942 28.6364 29.0909C28.6364 28.2876 29.2876 27.6364 30.0909 27.6364H35.9091ZM35.9091 21.8182C36.7124 21.8182 37.3636 22.4694 37.3636 23.2727C37.3636 24.0761 36.7124 24.7273 35.9091 24.7273H30.0909C29.2876 24.7273 28.6364 24.0761 28.6364 23.2727C28.6364 22.4694 29.2876 21.8182 30.0909 21.8182H35.9091ZM19.9091 43.6364C19.9091 44.0221 20.0624 44.392 20.3352 44.6648C20.608 44.9376 20.9779 45.0909 21.3636 45.0909H22.8182V33.4545H21.3636C20.9779 33.4545 20.608 33.6079 20.3352 33.8807C20.0624 34.1535 19.9091 34.5233 19.9091 34.9091V43.6364ZM40.2727 20.3636C40.2727 19.9779 40.1194 19.608 39.8466 19.3352C39.5738 19.0624 39.204 18.9091 38.8182 18.9091H27.1818C26.796 18.9091 26.4262 19.0624 26.1534 19.3352C25.8806 19.608 25.7273 19.9779 25.7273 20.3636V45.0909H40.2727V20.3636ZM43.1818 26.1818H44.6364C45.7937 26.1818 46.9033 26.6419 47.7216 27.4602C48.5399 28.2786 49 29.3881 49 30.5455V43.6364C49 44.7937 48.5399 45.9033 47.7216 46.7216C46.9033 47.5399 45.7937 48 44.6364 48H21.3636C20.2063 48 19.0967 47.5399 18.2784 46.7216C17.4601 45.9033 17 44.7937 17 43.6364V34.9091C17 33.7518 17.4601 32.6422 18.2784 31.8239C19.0967 31.0055 20.2063 30.5455 21.3636 30.5455H22.8182V20.3636C22.8182 19.2063 23.2783 18.0967 24.0966 17.2784C24.9149 16.4601 26.0245 16 27.1818 16H38.8182C39.9755 16 41.0851 16.4601 41.9034 17.2784C42.7218 18.0967 43.1818 19.2063 43.1818 20.3636V26.1818Z" fill="#D72638"/>
</svg>
